<?xml version="1.0" standalone="no"?>
<!DOCTYPE svg PUBLIC "-//W3C//DTD SVG 20010904//EN"
 "http://www.w3.org/TR/2001/REC-SVG-20010904/DTD/svg10.dtd">
<svg version="1.0" xmlns="http://www.w3.org/2000/svg"
 width="540.000000pt" height="540.000000pt" viewBox="0 0 540.000000 540.000000"
 preserveAspectRatio="xMidYMid meet">
<metadata>
Created by potrace 1.10, written by Peter Selinger 2001-2011
</metadata>
<g transform="translate(0.000000,540.000000) scale(0.100000,-0.100000)"
fill="#000000" stroke="none">
<path d="M0 2700 l0 -2700 2700 0 2700 0 0 2700 0 2700 -2700 0 -2700 0 0
-2700z m3658 -409 c2 -85 -1 -117 -10 -123 -21 -13 -232 -10 -246 4 -13 13
-17 192 -6 222 5 14 24 16 133 14 l126 -3 3 -114z m-2166 -181 c71 -22 136
-61 165 -100 42 -56 52 -130 53 -365 l0 -120 117 0 118 0 20 -41 c36 -74 36
-74 156 -74 97 0 109 2 119 19 5 11 10 26 10 33 0 19 -56 48 -93 48 -18 0 -41
7 -51 15 -11 8 -36 15 -57 15 -20 0 -42 7 -49 15 -7 8 -25 15 -40 15 -25 0
-57 12 -110 42 -8 4 -24 12 -35 17 -60 27 -100 120 -92 214 6 71 21 104 73
166 75 87 161 121 304 121 132 0 222 -28 299 -92 17 -15 31 -32 31 -38 0 -6 7
-13 15 -16 8 -4 15 -14 15 -23 0 -9 7 -27 16 -39 9 -14 14 -38 12 -65 l-3 -42
-125 -2 -125 -3 -21 43 c-19 38 -24 43 -70 50 -92 14 -177 -15 -161 -56 5 -13
109 -47 144 -47 10 0 31 -7 47 -15 15 -8 40 -15 55 -15 14 0 35 -7 45 -15 11
-8 32 -15 47 -15 14 0 32 -7 39 -15 7 -8 17 -15 22 -15 22 0 79 -55 100 -98
l23 -47 3 259 c1 171 6 264 13 273 17 20 242 18 259 -2 7 -8 9 -22 6 -31 -12
-33 7 -34 39 -3 67 66 188 87 291 52 56 -19 141 -78 173 -120 11 -15 25 -33
31 -40 5 -7 10 -16 10 -22 0 -5 6 -22 14 -38 28 -54 38 -135 33 -253 -7 -135
-15 -188 -33 -215 -8 -11 -14 -28 -14 -38 0 -9 -7 -20 -15 -23 -8 -4 -15 -12
-15 -20 0 -18 -89 -104 -107 -104 -7 0 -16 -7 -19 -15 -4 -8 -16 -15 -28 -15
-11 0 -30 -7 -40 -15 -27 -21 -175 -21 -202 0 -10 8 -26 15 -35 15 -8 0 -28
13 -44 30 -16 16 -30 28 -33 26 -2 -3 -3 -88 -2 -190 l1 -186 -26 -10 c-35
-13 -211 -13 -236 0 -18 10 -19 24 -19 271 0 171 -3 258 -10 254 -5 -3 -10
-17 -10 -29 0 -13 -7 -29 -15 -36 -8 -7 -15 -19 -15 -26 0 -8 -3 -14 -8 -14
-4 0 -21 -12 -38 -27 -30 -27 -64 -46 -134 -74 -48 -19 -292 -19 -340 0 -122
48 -177 91 -211 166 l-19 40 0 -52 c0 -41 4 -54 19 -62 22 -12 33 -55 18 -70
-7 -7 -63 -11 -138 -11 -139 0 -159 7 -159 56 0 25 -1 24 -48 -15 -27 -23 -57
-41 -68 -41 -10 0 -28 -7 -38 -15 -27 -21 -165 -21 -192 0 -10 8 -26 15 -36
15 -20 0 -128 102 -128 121 0 8 -7 23 -15 33 -24 32 -20 159 7 215 53 110 182
181 353 195 129 11 176 44 140 100 -16 24 -22 26 -94 26 -42 0 -81 -4 -86 -8
-16 -11 -45 -60 -45 -75 0 -24 -48 -37 -136 -37 -108 0 -124 8 -124 61 0 36
10 64 41 119 5 8 12 21 16 29 18 39 104 102 167 122 76 25 246 24 328 -1z
m2802 3 c85 -31 145 -96 186 -203 18 -47 27 -648 10 -680 -10 -20 -18 -20
-143 -18 l-132 3 -3 304 -2 305 -26 33 c-23 31 -29 33 -83 33 -69 0 -103 -15
-128 -55 -16 -27 -18 -60 -21 -320 -3 -209 -7 -292 -15 -297 -7 -4 -67 -8
-133 -8 l-122 0 -6 33 c-10 54 -6 815 4 843 10 25 10 25 127 22 l118 -3 3 -44
3 -43 38 38 c21 20 58 45 82 55 59 24 178 25 243 2z m-639 -25 c3 -13 4 -214
3 -448 l-3 -425 -124 -3 c-78 -2 -127 1 -131 8 -5 8 -7 856 -1 883 0 4 57 7
126 7 121 0 125 -1 130 -22z"/>
<path d="M2895 1876 c-87 -32 -105 -73 -105 -231 0 -107 3 -129 21 -159 63
-107 213 -98 268 17 17 36 21 62 21 148 0 140 -28 198 -109 226 -42 15 -55 15
-96 -1z"/>
<path d="M1380 1592 c-30 -8 -76 -16 -102 -19 -51 -5 -78 -28 -96 -79 -12 -38
9 -81 52 -104 25 -13 31 -13 58 3 16 9 39 17 51 17 12 1 34 11 49 23 21 18 28
36 37 96 7 40 10 75 9 76 -2 1 -28 -5 -58 -13z"/>
</g>
</svg>
