<?xml version="1.0" standalone="no"?>
<!DOCTYPE svg PUBLIC "-//W3C//DTD SVG 20010904//EN"
 "http://www.w3.org/TR/2001/REC-SVG-20010904/DTD/svg10.dtd">
<svg version="1.0" xmlns="http://www.w3.org/2000/svg"
 width="600.000000pt" height="600.000000pt" viewBox="0 0 600.000000 600.000000"
 preserveAspectRatio="xMidYMid meet">
<metadata>
Created by potrace 1.10, written by Peter Selinger 2001-2011
</metadata>
<g transform="translate(0.000000,600.000000) scale(0.100000,-0.100000)"
fill="#000000" stroke="none">
<path d="M2865 5845 c-38 -7 -114 -14 -167 -14 -53 -1 -109 -6 -125 -13 -15
-6 -50 -14 -78 -18 -100 -15 -215 -39 -234 -49 -11 -6 -37 -11 -58 -11 -21 0
-47 -7 -57 -15 -11 -8 -26 -15 -34 -15 -8 0 -44 -13 -79 -30 -34 -16 -71 -30
-81 -30 -10 0 -27 -7 -38 -15 -10 -8 -30 -15 -44 -15 -14 -1 -43 -12 -65 -25
-22 -14 -50 -29 -63 -35 -13 -6 -30 -17 -38 -25 -9 -8 -24 -15 -34 -15 -10 0
-22 -4 -25 -10 -3 -5 -16 -10 -29 -10 -20 0 -66 -36 -66 -52 0 -4 8 -9 18 -11
9 -3 -2 -5 -25 -6 -24 0 -43 -5 -43 -11 0 -5 -13 -10 -30 -10 -16 0 -30 -5
-30 -10 0 -6 -8 -14 -17 -17 -10 -4 -52 -33 -94 -65 -42 -32 -79 -58 -84 -58
-4 0 -30 -20 -56 -45 -26 -25 -53 -45 -59 -45 -5 0 -10 -9 -10 -20 0 -13 -5
-17 -14 -14 -14 5 -55 -27 -57 -43 0 -5 -14 -19 -30 -33 -61 -50 -88 -81 -83
-95 4 -10 0 -12 -17 -8 -19 5 -21 3 -17 -15 4 -14 2 -19 -7 -15 -18 6 -58 -35
-51 -53 3 -9 -1 -14 -14 -14 -11 0 -20 -6 -20 -13 0 -7 -20 -33 -45 -57 -25
-24 -45 -48 -45 -54 0 -5 -15 -27 -33 -50 -43 -53 -117 -165 -117 -177 0 -13
-46 -86 -60 -94 -11 -7 -60 -106 -60 -123 0 -6 -13 -30 -28 -54 -36 -55 -57
-102 -72 -158 -7 -25 -21 -65 -32 -90 -25 -56 -41 -95 -62 -143 -9 -21 -16
-54 -16 -73 0 -19 -5 -45 -12 -57 -12 -21 -29 -108 -47 -233 -5 -34 -14 -70
-20 -82 -6 -11 -11 -64 -11 -118 0 -53 -8 -134 -17 -179 -16 -79 -16 -90 0
-212 10 -70 17 -156 17 -190 0 -34 5 -74 12 -90 6 -15 15 -57 19 -93 10 -89
39 -223 50 -235 5 -5 9 -28 9 -51 0 -25 10 -63 24 -91 13 -26 36 -84 51 -128
15 -44 31 -84 36 -90 5 -5 9 -19 9 -30 0 -12 11 -42 25 -66 14 -24 30 -56 36
-71 6 -16 15 -28 20 -28 5 0 9 -11 9 -25 0 -14 7 -28 15 -31 9 -4 15 -19 15
-36 0 -21 6 -31 19 -35 11 -3 27 -21 36 -41 40 -91 89 -171 135 -221 9 -9 26
-33 39 -54 12 -20 27 -37 32 -37 5 0 13 -8 16 -18 4 -9 24 -34 45 -56 21 -21
38 -42 38 -47 0 -5 9 -18 21 -30 15 -15 24 -18 32 -10 19 19 29 12 23 -14 -5
-18 -2 -25 8 -25 8 0 18 -10 21 -21 8 -25 174 -189 191 -189 7 0 38 -26 70
-57 33 -32 75 -65 94 -74 19 -9 46 -28 60 -40 35 -32 87 -69 98 -69 5 0 15 -7
23 -16 8 -10 22 -14 40 -10 22 4 27 2 22 -9 -3 -10 1 -15 15 -15 11 0 22 -8
24 -17 3 -10 21 -25 39 -34 19 -8 77 -36 129 -62 52 -26 100 -47 106 -47 6 0
17 -7 24 -15 7 -9 29 -15 51 -15 22 0 39 -4 39 -10 0 -5 19 -14 43 -21 23 -6
47 -15 52 -19 6 -5 27 -11 48 -15 20 -4 40 -11 43 -16 3 -5 15 -9 27 -9 12 0
31 -7 41 -15 11 -8 38 -15 61 -15 22 0 68 -7 100 -16 87 -23 172 -34 325 -42
77 -4 144 -12 157 -19 30 -18 172 -16 258 2 39 8 101 15 139 15 69 0 107 5
261 36 44 9 106 18 137 21 32 3 63 12 69 19 6 8 24 14 40 14 15 0 34 6 41 13
7 8 25 17 38 20 72 17 135 38 144 47 5 5 24 10 42 10 18 0 34 6 37 14 3 7 17
16 32 20 15 4 44 18 66 31 21 14 45 25 53 25 7 0 19 7 26 15 7 8 25 15 40 15
15 0 33 7 40 15 7 8 17 15 22 15 8 0 67 38 78 51 3 3 34 21 70 39 65 34 110
67 110 81 0 4 -10 10 -22 12 -13 2 -6 3 15 0 32 -3 40 0 44 16 3 12 11 17 22
14 11 -3 27 6 42 24 13 15 38 37 54 47 17 11 34 25 38 33 4 7 13 13 18 13 6 0
80 70 166 155 123 124 153 159 148 175 -5 15 -3 18 8 14 28 -10 56 25 51 65
-2 20 -1 28 2 18 3 -9 9 -17 13 -17 11 0 51 45 51 57 0 6 20 33 45 61 25 27
45 53 45 56 0 4 20 40 45 80 25 41 45 78 45 81 0 4 14 24 30 45 17 21 30 49
30 63 0 13 7 30 15 37 8 7 15 19 15 26 0 8 14 36 30 62 17 27 30 56 30 64 0 9
7 21 15 28 8 7 15 25 15 40 0 16 4 30 8 32 7 3 36 87 50 148 3 13 11 31 19 38
7 7 13 26 13 41 0 16 6 34 14 40 7 6 16 37 19 69 3 31 15 107 27 167 11 61 25
166 30 235 4 69 13 138 19 153 15 38 14 218 -1 254 -6 15 -15 82 -19 148 -9
143 -27 283 -41 308 -5 11 -12 52 -15 93 -4 44 -11 79 -19 85 -8 6 -14 20 -14
31 0 11 -6 32 -14 46 -7 15 -22 54 -32 87 -10 33 -24 69 -31 80 -7 11 -13 34
-13 51 0 17 -7 37 -15 44 -8 7 -15 18 -15 24 0 7 -20 52 -45 100 -25 49 -45
92 -45 97 0 16 -75 119 -87 119 -7 0 -10 7 -6 16 7 18 -22 76 -56 113 -13 14
-41 52 -62 85 -21 32 -48 68 -59 80 -42 44 -90 104 -90 112 0 15 -100 114
-115 114 -7 0 -16 11 -19 25 -4 14 -22 35 -41 48 -19 12 -35 25 -35 29 0 10
-39 49 -80 80 -19 14 -57 47 -85 72 -27 25 -55 46 -61 46 -6 0 -21 12 -35 26
-13 14 -41 35 -61 47 -21 11 -38 24 -38 29 0 5 -11 13 -24 18 -31 12 -162 96
-171 109 -3 6 -15 11 -27 11 -11 0 -32 6 -46 14 -15 8 -34 17 -42 20 -8 4 -28
15 -45 25 -42 28 -100 54 -170 79 -134 47 -201 73 -227 87 -15 9 -44 15 -65
14 -21 -2 -48 3 -59 9 -28 15 -199 52 -240 52 -17 0 -48 7 -67 15 -23 9 -69
15 -124 15 -48 0 -124 7 -168 15 -96 17 -138 17 -230 0z m1731 -802 c-11 -11
-19 6 -11 24 8 17 8 17 12 0 3 -10 2 -21 -1 -24z m-2808 -510 c-4 -22 -22 -20
-26 1 -2 10 3 16 13 16 10 0 15 -7 13 -17z m-180 -24 c-2 -6 -8 -10 -13 -10
-5 0 -11 4 -13 10 -2 6 4 11 13 11 9 0 15 -5 13 -11z m272 -60 c0 -5 -7 -9
-15 -9 -15 0 -20 12 -9 23 8 8 24 -1 24 -14z m-340 -4 c0 -8 -4 -15 -10 -15
-5 0 -10 7 -10 15 0 8 5 15 10 15 6 0 10 -7 10 -15z m1263 -48 c17 -20 18 -50
16 -534 -1 -282 0 -516 4 -519 3 -4 28 12 54 34 58 48 148 102 171 102 9 0 26
7 36 15 11 8 28 15 37 15 10 0 30 6 46 14 15 8 57 19 93 26 73 12 320 17 337
7 7 -4 31 -11 55 -16 24 -5 68 -19 98 -30 30 -12 78 -30 107 -41 29 -10 79
-39 112 -64 33 -25 63 -46 68 -46 4 0 39 -32 77 -70 38 -39 73 -70 78 -70 4 0
8 -5 8 -10 0 -18 73 -110 87 -110 7 0 13 -8 13 -17 0 -22 22 -86 35 -104 28
-39 48 -97 80 -227 39 -165 2 -427 -84 -582 -13 -22 -31 -84 -31 -103 0 -9 -6
-17 -14 -17 -7 0 -21 -10 -29 -22 -9 -13 -27 -36 -41 -52 -14 -16 -26 -32 -26
-36 0 -16 -159 -160 -177 -160 -5 0 -23 -14 -41 -30 -18 -17 -39 -30 -46 -30
-8 0 -19 -7 -26 -15 -7 -8 -20 -15 -30 -15 -10 0 -23 -7 -30 -15 -7 -9 -29
-15 -55 -15 -26 0 -48 -6 -55 -15 -7 -8 -23 -15 -37 -15 -13 0 -38 -7 -55 -16
-44 -23 -398 -22 -430 1 -13 8 -34 15 -49 15 -15 0 -32 7 -39 15 -7 8 -26 15
-43 15 -32 0 -177 67 -177 82 0 4 -4 8 -10 8 -5 0 -19 9 -30 20 -11 11 -29 20
-39 20 -11 0 -34 19 -52 43 -19 23 -40 47 -49 53 -47 36 -73 69 -113 144 -11
19 -27 44 -37 55 -24 27 -70 162 -70 206 0 20 -7 44 -15 55 -12 16 -14 158
-15 1036 l0 1017 26 14 c19 10 60 12 157 9 120 -3 134 -5 150 -25z m-1180 3
c10 0 29 -11 43 -25 14 -14 39 -32 57 -41 40 -21 176 -125 198 -152 9 -11 21
-21 25 -23 15 -7 113 -126 124 -151 6 -12 28 -50 49 -83 22 -33 40 -71 40 -84
1 -13 14 -51 30 -85 15 -34 34 -79 41 -101 7 -22 16 -49 20 -60 12 -32 30
-114 30 -134 0 -10 7 -24 15 -31 8 -7 15 -21 15 -32 0 -29 31 -121 47 -140 8
-9 12 -21 9 -27 -4 -6 -3 -19 2 -28 6 -10 6 -28 1 -40 -11 -30 -86 -42 -121
-19 -14 9 -42 16 -64 15 -21 -1 -59 6 -83 15 -24 9 -53 16 -65 16 -12 0 -31 7
-42 15 -10 8 -36 15 -56 15 -21 0 -38 4 -38 9 0 5 -17 11 -37 14 -44 7 -99 34
-148 71 -18 14 -38 26 -43 26 -6 0 -12 7 -16 15 -3 8 -12 15 -20 15 -18 0
-216 194 -216 212 0 19 -47 61 -60 53 -5 -3 -10 1 -10 11 0 9 -11 27 -25 40
-14 13 -25 27 -25 32 0 10 -192 201 -235 234 -16 12 -35 29 -41 37 -6 8 -16
11 -22 7 -7 -4 -12 -1 -12 8 0 9 -4 16 -10 16 -5 0 -10 8 -10 18 0 11 -15 24
-40 35 -43 18 -50 39 -23 69 9 11 11 18 5 18 -7 0 -12 5 -12 10 0 18 29 11 40
-10 9 -16 21 -20 68 -20 31 -1 68 -7 82 -15 14 -8 37 -14 51 -15 15 0 32 -6
38 -14 6 -7 34 -16 62 -20 45 -6 90 -21 141 -47 10 -5 24 -9 32 -9 7 0 19 -7
26 -15 7 -8 20 -15 30 -15 10 0 23 -7 30 -15 7 -8 19 -15 28 -15 16 0 77 -29
124 -58 14 -9 48 -30 75 -46 26 -16 65 -42 86 -57 57 -41 197 -172 197 -184 0
-10 50 -45 63 -45 9 0 -35 94 -44 98 -5 2 -9 13 -9 24 0 10 -11 34 -24 51 -14
18 -29 43 -35 57 -6 14 -22 43 -36 65 -13 22 -24 47 -25 56 0 9 -10 23 -23 31
-12 9 -33 37 -46 64 -13 27 -30 53 -38 57 -7 4 -13 12 -13 17 0 13 -62 100
-71 100 -4 0 -21 23 -38 50 -17 28 -42 55 -55 60 -30 11 -37 23 -46 73 -7 36
-6 38 14 33 11 -3 29 -6 39 -6z m3157 -1920 c0 -54 -14 -65 -32 -25 -8 19 -8
31 0 50 18 40 32 29 32 -25z m520 -825 c0 -8 -4 -15 -10 -15 -5 0 -10 7 -10
15 0 8 5 15 10 15 6 0 10 -7 10 -15z"/>
<path d="M3310 3223 c-30 -2 -69 -10 -87 -18 -17 -8 -35 -15 -41 -15 -5 0 -28
-13 -50 -30 -23 -16 -48 -30 -56 -30 -7 0 -19 -7 -26 -15 -7 -8 -21 -15 -31
-15 -11 0 -19 -7 -19 -15 0 -8 5 -15 11 -15 5 0 7 -5 4 -11 -4 -6 -13 -8 -21
-5 -9 3 -14 -2 -14 -14 0 -13 -5 -18 -15 -14 -15 6 -20 -11 -15 -45 1 -12 -1
-12 -12 -4 -25 21 -54 -18 -88 -117 -18 -52 -40 -105 -47 -117 -22 -33 -21
-323 1 -354 9 -13 16 -35 16 -50 0 -15 7 -32 15 -39 8 -7 15 -20 15 -30 0 -10
7 -23 15 -30 8 -7 15 -23 15 -36 0 -15 10 -30 28 -41 15 -10 36 -29 47 -43 19
-23 64 -68 99 -97 8 -7 24 -13 35 -13 10 0 21 -7 25 -15 3 -8 14 -15 24 -15
11 0 25 -7 32 -15 7 -8 20 -15 29 -15 9 0 27 -7 39 -16 34 -23 336 -23 383 0
18 9 40 16 49 16 10 0 23 6 29 14 6 7 33 21 59 31 26 10 64 34 86 54 82 76
126 124 126 137 0 7 5 16 10 19 6 3 10 19 10 34 0 20 6 30 20 34 11 3 20 14
20 24 0 10 8 29 17 43 15 21 17 52 17 220 0 168 -2 199 -17 220 -9 14 -17 30
-17 37 0 6 -14 32 -30 57 -17 24 -37 61 -46 82 -21 51 -136 174 -161 174 -8 0
-30 11 -51 23 -86 55 -127 66 -255 70 -67 3 -147 3 -177 0z m-342 -1025 c-3
-7 -11 -13 -18 -13 -7 0 -15 6 -17 13 -3 7 4 12 17 12 13 0 20 -5 18 -12z"/>
</g>
</svg>
