<?xml version="1.0" standalone="no"?>
<!DOCTYPE svg PUBLIC "-//W3C//DTD SVG 20010904//EN"
 "http://www.w3.org/TR/2001/REC-SVG-20010904/DTD/svg10.dtd">
<svg version="1.0" xmlns="http://www.w3.org/2000/svg"
 width="705.000000pt" height="705.000000pt" viewBox="0 0 705.000000 705.000000"
 preserveAspectRatio="xMidYMid meet">
<metadata>
Created by potrace 1.16, written by Peter Selinger 2001-2019
</metadata>
<g transform="translate(0.000000,705.000000) scale(0.100000,-0.100000)"
fill="#000000" stroke="none">
<path d="M410 7040 c0 -5 -13 -10 -30 -10 -16 0 -30 -4 -30 -9 0 -5 -13 -12
-29 -16 -16 -3 -32 -13 -35 -21 -3 -8 -14 -14 -25 -14 -10 0 -21 -7 -25 -15
-3 -8 -10 -15 -15 -15 -12 0 -111 -98 -111 -109 0 -5 -7 -11 -15 -15 -8 -3
-15 -15 -15 -26 0 -11 -6 -23 -14 -26 -8 -3 -18 -19 -21 -35 -4 -16 -11 -29
-16 -29 -5 0 -9 -13 -9 -30 0 -16 -4 -30 -10 -30 -7 0 -10 -1045 -10 -3115 0
-2070 3 -3115 10 -3115 6 0 10 -13 10 -30 0 -16 4 -30 9 -30 5 0 12 -13 16
-29 3 -16 13 -32 21 -35 8 -3 14 -15 14 -26 0 -11 7 -23 15 -26 8 -4 15 -10
15 -15 0 -11 99 -109 111 -109 5 0 12 -7 15 -15 4 -8 15 -15 25 -15 11 0 22
-6 25 -14 3 -8 19 -18 35 -21 16 -4 29 -11 29 -16 0 -5 14 -9 30 -9 17 0 30
-4 30 -10 0 -7 1045 -10 3115 -10 2070 0 3115 3 3115 10 0 6 14 10 30 10 17 0
30 4 30 9 0 5 13 12 29 16 16 3 32 13 35 21 3 8 14 14 25 14 10 0 21 7 25 15
3 8 10 15 15 15 12 0 111 98 111 109 0 5 7 11 15 15 8 3 15 15 15 26 0 11 6
23 14 26 8 3 18 19 21 35 4 16 11 29 16 29 5 0 9 14 9 30 0 17 5 30 10 30 7 0
10 1045 10 3115 0 2070 -3 3115 -10 3115 -5 0 -10 14 -10 30 0 17 -4 30 -9 30
-5 0 -12 13 -16 29 -3 16 -13 32 -21 35 -8 3 -14 15 -14 26 0 11 -7 23 -15 26
-8 4 -15 10 -15 15 0 11 -95 105 -114 112 -9 4 -16 11 -16 17 0 5 -9 10 -20
10 -11 0 -23 6 -26 14 -3 8 -19 18 -35 21 -16 4 -29 11 -29 16 0 5 -13 9 -30
9 -16 0 -30 5 -30 10 0 7 -1045 10 -3115 10 -2070 0 -3115 -3 -3115 -10z
m3485 -1450 c61 -11 135 -27 165 -35 94 -25 154 -42 180 -53 14 -6 50 -20 80
-32 57 -23 220 -101 255 -123 11 -6 39 -24 63 -39 24 -16 45 -28 48 -28 15 0
205 -153 289 -232 191 -180 331 -372 446 -608 23 -47 45 -94 50 -105 34 -82
44 -113 73 -210 40 -136 53 -198 71 -345 38 -305 3 -651 -95 -925 -11 -33 -25
-74 -31 -92 -19 -63 -145 -300 -213 -401 -86 -128 -220 -284 -329 -381 -74
-67 -260 -211 -271 -211 -3 0 -24 -12 -48 -27 -66 -43 -77 -49 -158 -88 -41
-20 -83 -41 -92 -46 -46 -24 -284 -101 -378 -122 -166 -37 -264 -47 -459 -47
-293 0 -531 43 -749 136 -18 8 -37 14 -43 14 -17 0 -244 115 -294 149 -25 17
-48 31 -51 31 -3 0 -55 38 -117 84 -346 258 -605 620 -739 1031 -28 85 -64
234 -73 300 -22 160 -26 217 -26 339 0 266 39 481 136 756 23 65 123 268 156
318 16 24 29 45 29 47 0 10 100 148 161 220 349 421 861 694 1399 745 139 14
440 3 565 -20z m-2019 -3824 c119 -37 240 -150 291 -270 29 -70 40 -195 25
-278 -30 -159 -145 -291 -307 -354 -67 -26 -238 -27 -307 -2 -106 39 -220 131
-260 210 -52 104 -53 109 -53 243 0 124 1 133 31 195 59 125 174 222 309 262
72 21 193 19 271 -6z"/>
<path d="M4023 4205 c-187 -41 -300 -180 -347 -425 -24 -125 -22 -424 3 -550
30 -151 54 -203 130 -284 53 -55 96 -84 166 -112 73 -28 327 -28 400 0 150 59
237 170 287 368 30 117 32 493 4 608 -70 291 -220 412 -506 409 -41 0 -103 -7
-137 -14z m217 -251 c45 -39 69 -97 85 -209 29 -198 11 -516 -34 -602 -23 -46
-56 -78 -95 -92 -23 -10 -35 -8 -69 11 -92 51 -125 206 -113 538 6 182 19 254
58 318 40 65 114 81 168 36z"/>
<path d="M2607 4193 c-4 -3 -7 -15 -7 -26 0 -12 -4 -34 -9 -51 -13 -43 -29
-117 -71 -331 -5 -27 -19 -93 -30 -145 -32 -147 -34 -165 -19 -176 8 -6 69
-16 137 -23 l123 -12 54 36 c30 19 76 43 104 52 43 14 55 14 96 2 58 -17 120
-69 142 -118 10 -22 16 -64 16 -111 1 -124 -55 -208 -156 -238 -40 -12 -48
-11 -89 8 -58 27 -101 73 -123 133 -21 55 -8 53 -202 30 -143 -17 -143 -17
-143 -43 0 -28 27 -108 52 -155 21 -39 102 -116 153 -147 86 -51 147 -63 320
-63 153 0 163 1 234 29 117 46 222 144 272 256 48 106 47 294 -1 403 -12 26
-48 76 -80 111 -106 113 -227 153 -428 143 -56 -3 -104 -2 -106 2 -3 4 3 43
12 86 l17 80 275 5 275 5 0 130 0 130 -406 3 c-223 1 -408 -1 -412 -5z"/>
</g>
</svg>
