<svg height="300pt" preserveAspectRatio="xMidYMid meet" viewBox="0 0 300 300" width="300pt" xmlns="http://www.w3.org/2000/svg"><g transform="matrix(.05 0 0 -.05 0 300)"><path d="m1400 4155c-230-100-321-280-230-454 61-119 272-200 522-201 169 0 254-91 163-174-116-104-393-93-513 22-69 66-76 65-168-20-102-95-91-124 86-214 274-139 586-124 751 34l89 85v166c0 247-71 298-459 331-182 16-261 52-261 120 0 113 275 155 467 72 124-54 126-54 196 21 83 89 68 118-93 181-153 59-447 76-550 31z"/><path d="m2378 4151c-213-79-233-109-132-207 78-76 90-77 183-22 157 93 418 40 442-90 25-135 27-135-261-139-379-5-506-119-442-396 58-253 402-376 613-219 71 52 99 53 99 4 0-32 18-39 112-45 151-9 154-6 129 145-11 70-21 279-21 463v335l-68 75c-107 119-454 169-654 96zm502-702c0-144-100-210-303-201-143 6-217 51-217 131 0 98 57 121 304 121h216z"/><path d="m3377 4153c-190-84-265-386-197-793 51-305 409-452 628-259 86 75 92 74 92-16-2-179-236-291-418-199-89 45-82 46-181-45-99-92-98-96 47-169 210-106 441-88 632 51 156 112 163 152 165 844l1 603-123 6-123 6v-61c0-67-21-78-61-30-71 86-331 120-462 62zm401-222c141-73 184-461 65-587-99-107-291-110-390-7-61 64-83 435-31 518 59 96 242 135 356 76z"/><path d="m4466 4139c-232-115-334-454-238-785 94-324 504-435 847-229 123 74 127 95 40 175-79 71-83 72-162 15-142-101-433-51-504 87-51 99-54 98 384 98h413l-12 181c-16 255-101 391-291 471-107 44-375 37-477-13zm354-172c103-21 261-213 214-260-30-30-604-11-611 20-27 142 200 279 397 240z"/><path d="m4150 2398c-20-52-1-828 20-828 27 0 38 810 11 837-13 13-23 10-31-9z"/><path d="m3980 1989c0-361 4-411 31-405 50 10 54 816 4 816-32 0-35-33-35-411z"/><path d="m1890 2357c-20-52-1-787 20-787 11 0 23 68 26 153l6 153 138 7c283 16 419 333 194 450-87 46-369 63-384 24zm364-100c50-48 63-168 26-237-24-45-136-80-255-80h-85v180 180h134c109 0 142-8 180-43z"/><path d="m2420 2100c-22-22-40-53-40-69 0-51 35-52 68-1 36 55 163 71 208 26 42-42 31-161-14-147-65 21-209-24-257-79-134-156 51-340 242-240 50 26 60 26 87-1 17-17 45-28 62-25 40 8 56 56 19 56-30 0-55 162-55 362 0 153-208 230-320 118zm250-339c0-107-102-169-201-124-102 46-47 190 81 209 112 16 120 10 120-85z"/><path d="m2750 2105c7-19 52-145 99-280l86-246-42-84c-39-77-50-85-113-82-67 4-108-23-87-57 5-9 45-16 89-16 117 0 151 50 288 418 145 388 160 396 141 75-12-209-9-249 16-259 48-18 53 3 53 227 0 233 4 244 119 273 37 10 72 29 76 42 13 37-116 30-158-9-33-30-37-30-49 0-40 105-121 38-196-162-40-107-80-211-88-232-11-26-37 27-94 195-63 186-86 232-117 232-27 0-34-9-23-35z"/><path d="m3510 2074c-224-224 11-628 284-487 149 77 175 388 43 511-77 72-243 60-327-24zm269-14c120-64 99-358-30-412-144-60-249 35-249 225 0 155 151 256 279 187z"/></g></svg>