<?xml version="1.0" standalone="no"?>
<!DOCTYPE svg PUBLIC "-//W3C//DTD SVG 20010904//EN"
 "http://www.w3.org/TR/2001/REC-SVG-20010904/DTD/svg10.dtd">
<svg version="1.0" xmlns="http://www.w3.org/2000/svg"
 width="300.000000pt" height="113.000000pt" viewBox="0 0 300.000000 113.000000"
 preserveAspectRatio="xMidYMid meet">
<metadata>
Created by potrace 1.10, written by Peter Selinger 2001-2011
</metadata>
<g transform="translate(0.000000,113.000000) scale(0.050000,-0.050000)"
fill="#000000" stroke="none">
<path d="M5304 1225 c5 -243 11 -296 36 -300 30 -6 37 424 9 550 -29 134 -50
21 -45 -250z"/>
<path d="M5484 1225 c5 -243 11 -296 36 -300 30 -6 37 424 9 550 -29 134 -50
21 -45 -250z"/>
<path d="M555 1486 c-187 -29 -172 -227 24 -317 83 -39 101 -56 101 -99 0 -76
-80 -107 -168 -65 -70 33 -92 29 -92 -19 0 -98 247 -101 329 -4 93 110 60 197
-100 268 -162 71 -130 209 35 152 66 -23 96 -15 96 27 0 26 -104 74 -148 68
-12 -2 -47 -7 -77 -11z"/>
<path d="M3454 1484 l-55 -7 5 -273 c5 -228 11 -274 36 -274 22 0 32 28 36
105 6 102 8 105 66 105 169 0 275 165 182 280 -38 47 -162 76 -270 64z m206
-84 c83 -83 18 -200 -110 -200 l-70 0 0 120 0 120 70 0 c43 0 85 -15 110 -40z"/>
<path d="M2371 1455 c-4 -14 -13 -77 -20 -140 l-11 -115 96 0 c109 0 144 -25
144 -102 0 -93 -99 -124 -225 -69 -27 12 -35 6 -35 -28 0 -66 124 -112 223
-82 204 61 176 361 -33 361 -130 0 -94 107 40 120 74 7 101 19 106 45 9 44
-271 54 -285 10z"/>
<path d="M2818 1422 c-119 -120 -71 -455 73 -502 184 -61 313 159 241 407 -48
163 -199 209 -314 95z m218 -112 c47 -142 0 -310 -88 -310 -93 0 -138 190 -78
332 43 103 129 92 166 -22z"/>
<path d="M902 1302 c-17 -11 -22 -32 -14 -53 10 -27 19 -30 37 -12 33 33 126
28 156 -9 33 -39 -3 -67 -87 -68 -58 0 -154 -78 -154 -125 0 -83 57 -112 208
-110 l147 3 -10 171 c-6 94 -19 182 -30 196 -23 29 -210 34 -253 7z m198 -228
c0 -59 -35 -94 -94 -94 -25 0 -46 4 -46 8 0 5 -5 22 -11 38 -15 40 44 94 102
94 38 0 49 -11 49 -46z"/>
<path d="M1328 1269 c-125 -124 -29 -367 133 -341 68 11 79 7 79 -25 0 -81
-101 -125 -183 -81 -55 29 -95 -6 -58 -51 17 -21 61 -31 132 -31 174 0 209 61
209 368 l0 205 -132 2 c-115 2 -139 -4 -180 -46z m188 -26 c50 -32 23 -232
-32 -240 -68 -9 -104 32 -104 118 0 108 66 166 136 122z"/>
<path d="M1819 1307 c-103 -28 -129 -232 -42 -330 65 -73 215 -93 272 -37 45
46 9 91 -48 60 -61 -32 -130 -11 -156 48 -28 60 -5 72 137 72 86 0 98 5 98 41
0 128 -107 188 -261 146z m157 -102 c6 -39 -2 -45 -65 -45 -56 0 -71 8 -71 37
0 80 125 88 136 8z"/>
<path d="M3855 1306 c-19 -5 -35 -21 -35 -36 0 -22 12 -24 57 -8 37 13 74 13
110 -1 93 -35 57 -101 -56 -101 -64 0 -151 -74 -151 -128 0 -74 66 -119 154
-104 105 17 110 17 166 1 41 -12 46 -10 25 12 -15 16 -25 81 -25 159 0 200
-64 254 -245 206z m185 -235 c0 -94 -139 -147 -181 -69 -31 59 26 118 114 118
58 0 67 -7 67 -49z"/>
<path d="M4160 1301 c0 -34 118 -344 141 -372 42 -51 -40 -158 -106 -137 -23
7 -35 0 -35 -21 0 -43 105 -41 144 4 32 38 207 521 193 535 -23 23 -62 -36
-103 -158 -57 -171 -73 -172 -123 -12 -50 160 -111 248 -111 161z"/>
<path d="M4587 1288 c-17 -42 3 -348 23 -353 11 -3 23 54 26 134 7 154 25 191
96 191 30 0 48 12 48 30 0 36 -179 34 -193 -2z"/>
<path d="M4925 1307 c-89 -36 -112 -253 -38 -340 114 -132 302 -35 299 154 -2
160 -119 243 -261 186z m171 -71 c72 -72 6 -276 -90 -276 -84 0 -137 165 -85
261 23 45 136 54 175 15z"/>
</g>
</svg>
