<?xml version="1.0" standalone="no"?>
<!DOCTYPE svg PUBLIC "-//W3C//DTD SVG 20010904//EN"
 "http://www.w3.org/TR/2001/REC-SVG-20010904/DTD/svg10.dtd">
<svg version="1.0" xmlns="http://www.w3.org/2000/svg"
 width="300.000000pt" height="300.000000pt" viewBox="0 0 300.000000 300.000000"
 preserveAspectRatio="xMidYMid meet">
<metadata>
Created by potrace 1.10, written by Peter Selinger 2001-2011
</metadata>
<g transform="translate(0.000000,300.000000) scale(0.100000,-0.100000)"
fill="#191c1f" stroke="none">
<path d="M1340 2986 c0 -16 -14 -22 -80 -31 -91 -12 -242 -52 -307 -81 -17 -8
-34 -14 -37 -14 -9 0 -149 -70 -181 -90 -16 -11 -37 -23 -45 -27 -37 -17 -182
-134 -251 -202 -68 -69 -185 -213 -202 -251 -4 -8 -16 -28 -26 -45 -82 -128
-152 -322 -189 -520 -18 -99 -21 -378 -3 -455 6 -30 19 -89 28 -130 9 -41 22
-89 29 -107 8 -17 14 -36 14 -42 0 -13 22 -64 76 -173 41 -84 77 -143 140
-233 32 -45 248 -265 261 -265 4 0 22 -13 39 -28 18 -15 48 -36 68 -47 20 -11
36 -23 36 -27 0 -5 4 -8 8 -8 5 0 45 -20 89 -44 45 -24 90 -46 100 -49 10 -3
45 -16 78 -27 175 -63 298 -83 510 -83 207 0 269 9 470 70 81 24 203 81 300
137 176 104 397 326 501 501 30 52 82 155 107 215 31 74 74 231 82 299 7 60
21 95 36 86 5 -4 9 61 9 169 0 149 -2 176 -15 176 -16 0 -20 14 -35 110 -11
77 -28 143 -46 187 -8 17 -14 36 -14 42 0 27 -108 247 -137 279 -7 7 -13 18
-13 23 0 6 -6 17 -12 24 -20 22 -31 37 -58 75 -74 106 -265 276 -400 356 -89
53 -259 134 -281 134 -6 0 -25 6 -42 13 -38 17 -153 43 -222 52 -70 9 -85 14
-85 31 0 11 -26 14 -150 14 -124 0 -150 -3 -150 -14z m245 -436 c75 -37 135
-91 135 -122 0 -63 -66 -90 -108 -45 -12 13 -41 33 -65 45 -131 65 -286 20
-353 -101 -26 -46 -29 -62 -28 -132 1 -61 6 -89 23 -120 25 -47 26 -63 5 -93
-18 -26 -65 -30 -88 -7 -8 8 -27 41 -43 72 -25 51 -28 69 -28 153 0 88 2 100
34 162 54 109 160 196 264 218 76 16 185 3 252 -30z m508 -207 c115 -36 215
-131 253 -238 11 -30 18 -78 18 -120 0 -125 -61 -238 -166 -307 -103 -68 -100
-68 -745 -68 -488 0 -585 3 -621 15 -58 20 -90 41 -136 89 -108 113 -102 288
14 404 70 69 133 89 170 52 39 -39 17 -88 -52 -118 -44 -18 -78 -82 -78 -145
0 -66 27 -111 85 -144 l40 -23 576 0 c633 0 627 0 703 61 104 86 109 267 9
361 -66 63 -177 84 -258 50 -53 -22 -74 -38 -114 -89 -25 -33 -39 -43 -62 -43
-33 0 -69 31 -69 58 0 40 98 145 169 182 79 41 181 50 264 23z m-916 -911 c24
-15 34 -69 32 -167 -2 -115 2 -118 64 -54 43 44 70 49 104 17 41 -38 31 -56
-97 -182 -109 -108 -122 -118 -147 -111 -16 4 -71 51 -135 116 -116 117 -130
146 -88 182 33 28 62 21 110 -28 24 -24 47 -42 52 -39 4 3 8 57 8 120 0 101 2
116 20 134 20 20 55 26 77 12z m800 -104 c121 -121 132 -144 93 -186 -31 -32
-55 -27 -109 23 -26 25 -51 45 -54 45 -3 0 -7 -56 -9 -125 -2 -68 -7 -128 -13
-134 -22 -21 -61 -22 -86 -2 -23 18 -24 24 -24 140 0 67 -4 121 -8 121 -4 0
-27 -20 -51 -45 -50 -51 -78 -56 -113 -23 -41 38 -31 57 93 182 89 89 121 116
141 116 21 0 53 -26 140 -112z m-1126 -509 c36 -36 21 -54 -44 -54 -31 0 -57
-3 -57 -7 0 -5 0 -12 0 -17 0 -5 15 -15 34 -21 88 -29 116 -112 57 -171 -26
-26 -36 -29 -90 -29 -48 0 -65 4 -82 21 -37 37 -22 54 51 54 81 0 87 18 17 55
-55 29 -86 64 -87 97 0 12 15 38 34 57 31 33 38 36 90 36 43 0 61 -5 77 -21z
m989 -8 c53 -52 47 -107 -18 -178 -22 -24 -21 -49 2 -40 6 2 21 0 34 -4 18 -7
23 -15 20 -36 -3 -28 -4 -28 -83 -31 -98 -4 -121 2 -128 29 -4 16 10 37 59 90
47 50 64 76 62 92 -3 25 -43 36 -61 18 -6 -6 -21 -11 -33 -11 -31 0 -41 35
-17 62 42 47 121 52 163 9z m214 19 c14 -5 37 -28 52 -50 l27 -41 13 29 c27
66 101 90 157 53 42 -28 59 -67 59 -142 0 -106 -39 -159 -117 -159 -48 0 -82
21 -99 62 l-13 29 -37 -45 c-35 -43 -40 -46 -85 -46 -67 0 -96 25 -112 95 -14
63 0 156 29 188 31 35 79 45 126 27z m-993 -96 c20 -18 36 -194 18 -205 -7 -4
-45 -7 -85 -8 -67 -1 -74 1 -93 25 -34 43 -25 86 24 112 20 11 20 11 0 18 -26
10 -34 22 -28 45 10 38 126 47 164 13z m247 10 c9 -2 12 -38 12 -133 l0 -129
-31 -26 c-30 -25 -52 -30 -114 -26 -40 3 -57 18 -53 49 3 24 7 26 53 26 57 0
73 16 20 21 -48 4 -54 9 -77 61 -17 38 -18 49 -7 81 13 43 36 71 64 82 18 7
103 4 133 -6z m225 -25 c21 -23 27 -39 25 -62 -3 -31 -4 -32 -60 -35 -45 -2
-58 -7 -58 -19 0 -13 8 -15 49 -10 35 4 53 2 60 -7 14 -17 4 -43 -20 -56 -23
-13 -105 -13 -129 0 -24 13 -60 75 -60 104 0 44 40 104 80 119 31 12 85 -4
113 -34z"/>
<path d="M1979 733 c-14 -37 -1 -130 19 -138 22 -8 33 6 39 53 8 63 -4 112
-28 112 -12 0 -23 -10 -30 -27z"/>
<path d="M2216 738 c-17 -65 1 -152 31 -146 21 4 35 77 24 129 -8 42 -45 53
-55 17z"/>
<path d="M967 614 c-14 -14 -7 -25 13 -22 12 2 21 8 21 13 0 12 -24 18 -34 9z"/>
<path d="M1195 650 c-7 -32 7 -60 30 -60 17 0 22 15 17 56 -6 45 -37 48 -47 4z"/>
</g>
</svg>
