<svg enable-background="new 0 0 1920 1080" viewBox="0 0 1920 1080" xmlns="http://www.w3.org/2000/svg"><path d="m1225 1081c-408.333252 0-816.166534 0-1223.999836 0-.000055-359.999878-.000055-719.999725-.000109-1079.999691 639.999701-.000103 1279.999457-.000103 1919.999457-.000206.000122 359.999561.000122 719.999226.000244 1079.999409-231.83313.000488-463.666382.000488-695.999756.000488m-798-428.5c0 57.49585-.161102 114.992371.091827 172.487061.082886 18.83905.80423 37.702209 2.046906 56.50061.977508 14.786377 2.061371 29.734497 5.14505 44.173584 4.651581 21.781006 10.737976 43.305176 21.898834 62.9328 10.259766 18.04303 22.599579 34.42749 39.169403 47.161072 14.606598 11.224853 30.397064 20.297485 47.965363 26.40625 19.60144 6.815796 39.469421 12.068603 60.171264 13.825684 16.994324 1.442138 34.004151 3.817138 51.009766 3.839843 201.318054.268921 402.636597.189331 603.955078.130493 11.418457-.003295 22.850708-.376586 34.251221-1.023803 12.434814-.705933 24.849609-1.828858 37.256103-2.956909 16.458619-1.496582 32.49524-4.992554 48.294434-9.904908 30.531128-9.493042 57.742798-24.262817 78.89209-48.774292 13.605469-15.768554 23.902222-33.520019 30.898559-53.194152 7.000489-19.685425 12.221314-39.75763 13.957398-60.637269 1.37207-16.500305 3.802002-33.005493 3.823975-49.511169.266235-200.318176.190307-400.63681.130004-600.955322-.003784-12.251724-.369873-24.516907-1.027099-36.751114-.686035-12.768402-1.864014-25.51239-2.944214-38.257111-1.410767-16.644928-5.031494-32.859665-10.018189-48.766388-9.712402-30.980835-24.839965-58.586624-50.086181-79.852745-15.943726-13.430279-33.838745-23.440122-53.449463-30.334949-18.775025-6.601012-37.996948-11.41817-57.906128-13.033623-17.165283-1.392816-34.338379-3.807631-51.510498-3.830594-201.651367-.269662-403.303284-.189109-604.955078-.13042-11.251709.003274-22.517395.378888-33.751221 1.022636-12.43457.712553-24.836121 1.983702-37.258911 2.920276-16.690735 1.258329-32.847351 5.079293-48.769104 10.03168-29.330017 9.122971-55.496399 23.42335-76.345367 46.512797-15.361084 17.011822-26.440217 36.518299-33.897614 58.086025-6.608643 19.112961-11.398346 38.673935-13.044006 58.904053-1.355927 16.668365-3.781952 33.338135-3.818482 50.011474-.308197 140.655594-.17572 281.312149-.17572 422.96843z" fill="#fff"/><path d="m427 652c0-141.156281-.132477-281.812836.17572-422.46843.03653-16.673339 2.462555-33.343109 3.818482-50.011474 1.64566-20.230118 6.435363-39.791092 13.044006-58.904053 7.457397-21.567726 18.53653-41.074203 33.897614-58.086025 20.848968-23.089447 47.01535-37.389826 76.345367-46.512797 15.921753-4.952387 32.078369-8.773351 48.769104-10.03168 12.42279-.936574 24.824341-2.207723 37.258911-2.920276 11.233826-.643748 22.499512-1.019362 33.751221-1.022636 201.651794-.058689 403.303711-.139242 604.955078.13042 17.172119.022963 34.345215 2.437778 51.510498 3.830594 19.90918 1.615453 39.131103 6.432611 57.906128 13.033623 19.610718 6.894827 37.505737 16.90467 53.449463 30.334949 25.246216 21.266121 40.373779 48.87191 50.086181 79.852745 4.986695 15.906723 8.607422 32.12146 10.018189 48.766388 1.0802 12.744721 2.258179 25.488709 2.944214 38.257111.657226 12.234207 1.023315 24.49939 1.027099 36.751114.060303 200.318512.136231 400.637146-.130004 600.955322-.021973 16.505676-2.451905 33.010864-3.823975 49.511169-1.736084 20.879639-6.956909 40.951844-13.957398 60.637269-6.996337 19.674133-17.29309 37.425598-30.898559 53.194152-21.149292 24.511475-48.360962 39.28125-78.89209 48.774292-15.799194 4.912354-31.835815 8.408326-48.294434 9.904908-12.406494 1.128051-24.821289 2.250976-37.256103 2.956909-11.400513.647217-22.832764 1.020508-34.251221 1.023803-201.318481.058838-402.637024.138428-603.955078-.130493-17.005615-.022705-34.015442-2.397705-51.009766-3.839843-20.701843-1.757081-40.569824-7.009888-60.171264-13.825684-17.568299-6.108765-33.358765-15.181397-47.965363-26.40625-16.569824-12.733582-28.909637-29.118042-39.169403-47.161072-11.160858-19.627624-17.247253-41.151794-21.898834-62.9328-3.083679-14.439087-4.167542-29.387207-5.14505-44.173584-1.242676-18.798401-1.96402-37.66156-2.046906-56.50061-.252929-57.49469-.091827-114.991211-.091827-172.987061m932.872681 320.439209c28.918335-13.912659 44.080932-36.724426 44.08728-68.999939.048096-241.631714.042114-483.263397-.058838-724.89505-.002808-6.545883-.552978-13.261902-2.066284-19.608048-7.492554-31.420639-36.487061-54.883483-67.83667-54.892227-243.13147-.067794-486.263001.016442-729.394348-.152244-19.784973-.013726-37.026856 5.747436-51.476624 19.034202-14.032226 12.902893-22.98706 28.932358-23.001892 48.249695-.189026 246.630829-.131836 493.261841-.05841 739.892822.001159 3.905945.671691 7.887696 1.574035 11.705445 7.66272 32.420593 37.950684 55.441345 71.703552 55.39685 242.131226-.31903 484.263062-.191467 726.394654-.098327 10.223877.003967 19.98706-1.568543 30.133545-5.633179z"/><path d="m1359.542847 972.646484c-9.816651 3.857361-19.579834 5.429871-29.803711 5.425904-242.131592-.09314-484.263428-.220703-726.394654.098327-33.752868.044495-64.040832-22.976257-71.703552-55.39685-.902344-3.817749-1.572876-7.7995-1.574035-11.705445-.073426-246.630981-.130616-493.261993.05841-739.892822.014832-19.317337 8.969666-35.346802 23.001892-48.249695 14.449768-13.286766 31.691651-19.047928 51.476624-19.034202 243.131347.168686 486.262878.08445 729.394348.152244 31.349609.008744 60.344116 23.471588 67.83667 54.892227 1.513306 6.346146 2.063476 13.062165 2.066284 19.608048.100952 241.631653.106934 483.263336.058838 724.89505-.006348 32.275513-15.168945 55.08728-44.417114 69.207214m-418.399536-441.146484c0-16.933838 0-33.867706 0-50.968872-9.107911 0-17.665955 0-26.495057 0-.191467 3.744415-.369812 7.231262-.606201 11.853821-11.067871-12.091309-24.030212-15.427796-38.731567-14.427063-19.006043 1.293823-34.944397 14.663757-36.810913 33.175445-1.430664 14.189057-1.268982 28.577362-1.109986 42.869294.06543 5.884643 1.139344 12.063232 3.19928 17.567443 8.657105 23.132508 35.969116 31.174439 56.49292 23.406311 6.009461-2.274536 11.390442-6.20935 18.188599-10.015319-1.105164 5.842895-1.043885 11.612609-3.294678 16.263244-6.458374 13.344544-25.599426 18.454102-39.964478 11.379761-3.067443-1.510681-6.075683-3.141541-7.594421-3.929749-6.552307 6.006165-12.465698 11.426697-18.52417 16.980164 13.203858 10.340332 27.487427 16.549927 44.338623 15.284241 15.534058-1.166687 29.01648-6.824646 39.325318-18.792664 8.291442-9.625915 11.354309-21.298889 11.520629-33.686584.250245-18.650086.065674-37.306031.066102-56.959473m86.374389 33.657593c-12.919861 9.725769-27.205566 11.054321-42.041992 5.928039-10.250427-3.541748-15.947205-12.406616-15.364563-22.297851h80.794251c2.66101-10.251343 2.071289-20.111023.37268-30.009644-2.75415-16.04837-10.495605-28.540314-25.650513-35.528412-13.827514-6.376037-28.381835-7.028564-42.955871-3.636993-15.642883 3.64032-26.813843 13.079285-33.498657 27.90509-7.751892 17.192627-8.210999 34.902588-3.197632 52.606385 4.047119 14.291442 12.974609 25.216003 26.734375 31.787414 13.826904 6.603516 28.284363 7.443604 42.878784 4.077149 12.151917-2.803162 22.655579-9.028565 30.997253-17.992432-5.174926-5.337158-10.121337-10.438477-15.029663-15.50061-1.234253.825439-2.338745 1.564147-4.038452 2.661865m-274.278869-81.430725c-5.655274 3.065765-11.310608 6.13153-17.10608 9.273315 5.818726 5.907623 11.11139 11.281128 16.417115 16.667847 12.11084-8.582947 25.630005-11.347962 40.198608-8.788727 9.382935 1.648315 14.674805 6.232178 15.340393 13.218903.421204 4.421691.078675 8.916198.078675 13.881469-1.674805 0-3.300904-.003051-4.927002.000489-11.157227.024231-22.314393.059936-33.471619.07196-8.176575.00885-15.85553 2.099365-22.799072 6.272095-16.059693 9.65094-18.012879 36.985107-4.537293 52.033142 11.149048 12.450073 36.494019 13.752807 49.548889 8.850159 5.708924-2.143982 10.856385-5.782959 16.303162-8.767334.132873 2.763488.281677 5.857849.429016 8.921508h26.141907c0-26.884765.377319-53.362487-.158814-79.821716-.269226-13.289307-5.423034-24.85556-18.302124-30.877777-20.533935-9.601593-41.469848-9.058319-63.155761-.935333m-111.273621 75.919555c-5.429565 5.480896-10.859192 10.961792-17.281067 17.444397 7.843872 4.937256 14.617065 10.077393 22.113709 13.734803 15.134887 7.384216 31.44757 8.429138 47.840026 5.943481 17.963684-2.723877 33.273743-12.191467 36.924866-31.142517 2.457092-12.753784-1.410644-26.852783-14.587646-33.332764-7.979126-3.923889-16.320496-5.362549-24.894043-6.479065-9.539673-1.24237-19.115906-2.312317-28.575196-4.017578-4.538757-.818176-7.990722-4.260803-8.221862-8.950073-.234009-4.749146 3.146911-8.154846 7.482299-9.552734 4.847168-1.562897 9.944275-2.811554 15.004456-3.163361 13.169128-.915527 25.291626 2.793701 35.673401 9.318329 5.642273-5.318176 11.030578-10.396973 16.64032-15.684509-18.516419-13.332795-38.976929-17.848816-61.079407-15.242157-10.928101 1.288757-20.792969 5.498474-29.123535 12.962738-14.354248 12.861511-12.146729 36.675598 2.155334 46.045715 8.768311 5.744507 18.413391 8.211365 28.555664 9.413635 8.922669 1.0578 17.86969 1.911499 26.790039 2.987244 4.532166.546509 7.74823 2.865722 8.693848 7.607055 1.004395 5.035706-.781067 9.547486-5.235779 11.286561-6.514343 2.543212-13.491943 4.861084-20.389343 5.262939-14.646729.853333-27.139526-5.189514-38.486084-14.442139m596.7771-120.556121c-8.050904 4.168304-14.216675 10.221466-18.457642 18.261291-7.136108 13.528626-9.802368 28.091309-10.556519 43.211548-1.05542 21.162323-1.481323 42.312164 3.572754 63.046661 2.617066 10.736756 7.074829 20.95575 16.306519 27.880615 13.346313 10.011231 28.359863 11.303711 44.015747 6.961365 12.484131-3.462646 20.709961-11.800415 26.092163-23.445984 6.564941-14.204834 8.266846-29.436706 9.072144-44.651062 1.037353-19.598877.801147-39.288635-3.883912-58.55014-2.878418-11.834534-7.549804-22.945953-18.227172-29.910523-15.030762-9.804351-31.006592-9.288726-47.934082-2.803771m-61.676636 140.459259c-9.077637 8.549011-20.09668 11.672485-32.153565 10.312561-16.376831-1.847229-25.619995-11.955445-28.755859-27.730896-4.129761.966125-7.48877 1.751892-11.291504 2.64154 2.217651 10.556152 5.969971 20.061401 14.746948 26.417969 13.999512 10.138916 29.639405 11.499817 46.06128 7.32843 11.348877-2.882812 20.466797-9.233643 26.381347-19.125366 10.789307-18.044434 11.523194-37.427246 5.477783-57.214234-2.45288-8.02832-7.301879-14.533294-14.341918-19.165466-14.781373-9.725708-39.002808-9.269684-53.498291.869568-1.405152.982849-2.756714 2.041992-5.078858 3.769196 1.841309-20.759369 3.567017-40.216523 5.339844-60.205109h60.889404c0-3.682098 0-6.757965 0-9.984192-23.7406 0-47.126831 0-71.137207 0-.723755 9.731354-1.42102 19.164124-2.12793 28.59613-1.180908 15.754059-2.219238 31.521241-3.659057 47.251648-.351196 3.837342 2.104126 4.687806 4.429931 5.469971 1.6792.564697 4.411866.647278 5.580567-.344543 8.413696-7.139954 18.082641-11.139405 28.955566-12.079956 10.89917-.942841 24.833496 2.75885 30.005005 13.616149 9.84668 20.672425 8.402344 40.462342-5.823486 59.5766z" fill="#fff"/><path d="m941.143311 532c-.000428 19.153442.184143 37.809387-.066102 56.459473-.16632 12.387695-3.229187 24.060669-11.520629 33.686584-10.308838 11.968018-23.79126 17.625977-39.325318 18.792664-16.851196 1.265686-31.134765-4.943909-44.338623-15.284241 6.058472-5.553467 11.971863-10.973999 18.52417-16.980164 1.518738.788208 4.526978 2.419068 7.594421 3.929749 14.365052 7.074341 33.506104 1.964783 39.964478-11.379761 2.250793-4.650635 2.189514-10.420349 3.294678-16.263244-6.798157 3.805969-12.179138 7.740783-18.188599 10.015319-20.523804 7.768128-47.835815-.273803-56.49292-23.406311-2.059936-5.504211-3.13385-11.6828-3.19928-17.567443-.158996-14.291932-.320678-28.680237 1.109986-42.869294 1.866516-18.511688 17.80487-31.881622 36.810913-33.175445 14.701355-1.000733 27.663696 2.335754 38.731567 14.427063.236389-4.622559.414734-8.109406.606201-11.853821h26.495057zm-78.26764 22.443848c1.35907 3.309936 2.021607 7.197693 4.20221 9.826049 7.901794 9.524292 22.925049 12.495179 34.079651 6.852906 7.840942-3.966126 13.131042-9.961182 12.978454-19.52179-.16455-10.31311-.007568-20.631714-.212402-30.943542-.044495-2.239014-.650757-4.647644-1.646423-6.656983-5.369202-10.83609-19.315247-16.422607-31.537293-12.655975-8.27832 2.551178-16.25824 6.715057-17.261597 15.959625-1.300231 11.978516-.580139 24.17627-.6026 37.13971z" fill="#03de04"/><path d="m1027.815308 564.978088c1.402099-.918213 2.506591-1.656921 3.740844-2.48236 4.908326 5.062133 9.854737 10.163452 15.029663 15.50061-8.341674 8.963867-18.845336 15.18927-30.997253 17.992432-14.594421 3.366455-29.05188 2.526367-42.878784-4.077149-13.759766-6.571411-22.687256-17.495972-26.734375-31.787414-5.013367-17.703797-4.55426-35.413758 3.197632-52.606385 6.684814-14.825805 17.855774-24.26477 33.498657-27.90509 14.574036-3.391571 29.128357-2.739044 42.955871 3.636993 15.154908 6.988098 22.896363 19.480042 25.650513 35.528412 1.698609 9.898621 2.28833 19.758301-.37268 30.009644-27.00293 0-53.91388 0-80.794251 0-.582642 9.891235 5.114136 18.756103 15.364563 22.297851 14.836426 5.126282 29.122131 3.79773 42.3396-6.107544m-32.315308-36.867981h35.271606c1.161499-16.67987-12.036132-29.006439-30.409606-28.888732-18.536927.118743-31.631226 12.468566-30.185669 28.888732z" fill="#04de05"/><path d="m753.590576 483.572998c21.334168-7.969116 42.270081-8.51239 62.804016 1.089203 12.87909 6.022217 18.032898 17.58847 18.302124 30.877777.536133 26.459229.158814 52.936951.158814 79.821716-8.684387 0-17.217468 0-26.141907 0-.147339-3.063659-.296143-6.15802-.429016-8.921508-5.446777 2.984375-10.594238 6.623352-16.303162 8.767334-13.05487 4.902648-38.399841 3.599914-49.548889-8.850159-13.475586-15.048035-11.5224-42.382202 4.537293-52.033142 6.943542-4.17273 14.622497-6.263245 22.799072-6.272095 11.157226-.012024 22.314392-.047729 33.471619-.07196 1.626098-.00354 3.252197-.000489 4.927002-.000489 0-4.965271.342529-9.459778-.078675-13.881469-.665588-6.986725-5.957458-11.570588-15.340393-13.218903-14.568603-2.559235-28.087768.20578-40.198608 8.788727-5.305725-5.386719-10.598389-10.760224-16.417115-16.667847 5.795472-3.141785 11.450806-6.20755 17.457825-9.427185m40.404907 90.306946c13.915955-2.790222 15.647828-13.511963 14.175843-24.21051-13.97107 0-27.892151-.450562-41.763245.187316-7.087952.325928-10.462646 4.532654-10.733826 10.254639-.291015 6.138733 2.681763 11.100525 9.403138 12.106812 9.245056 1.384155 18.713684 1.274719 28.91809 1.661743z" fill="#03de04"/><path d="m642.23999 559.427368c11.071778 9.47168 23.564575 15.514527 38.211304 14.661194 6.8974-.401855 13.875-2.719727 20.389343-5.262939 4.454712-1.739075 6.240174-6.250855 5.235779-11.286561-.945618-4.741333-4.161682-7.060546-8.693848-7.607055-8.920349-1.075745-17.86737-1.929444-26.790039-2.987244-10.142273-1.20227-19.787353-3.669128-28.555664-9.413635-14.302063-9.370117-16.509582-33.184204-2.155334-46.045715 8.330566-7.464264 18.195434-11.673981 29.123535-12.962738 22.102478-2.606659 42.562988 1.909362 61.079407 15.242157-5.609742 5.287536-10.998047 10.366333-16.64032 15.684509-10.381775-6.524628-22.504273-10.233856-35.673401-9.318329-5.060181.351807-10.157288 1.600464-15.004456 3.163361-4.335388 1.397888-7.716308 4.803588-7.482299 9.552734.23114 4.68927 3.683105 8.131897 8.221862 8.950073 9.45929 1.705261 19.035523 2.775208 28.575196 4.017578 8.573547 1.116516 16.914917 2.555176 24.894043 6.479065 13.177002 6.479981 17.044738 20.57898 14.587646 33.332764-3.651123 18.95105-18.961182 28.41864-36.924866 31.142517-16.392456 2.485657-32.705139 1.440735-47.840026-5.943481-7.496644-3.65741-14.269837-8.797547-22.113709-13.734803 6.421875-6.482605 11.851502-11.963501 17.555847-17.663452z" fill="#03de04"/><path d="m1239.101807 438.973236c16.567993-6.367889 32.543823-6.883514 47.574585 2.920837 10.677368 6.96457 15.348754 18.075989 18.227172 29.910523 4.685059 19.261505 4.921265 38.951263 3.883912 58.55014-.805298 15.214356-2.507203 30.446228-9.072144 44.651062-5.382202 11.645569-13.608032 19.983338-26.092163 23.445984-15.655884 4.342346-30.669434 3.049866-44.015747-6.961365-9.23169-6.924865-13.689453-17.143859-16.306519-27.880615-5.054077-20.734497-4.628174-41.884338-3.572754-63.046661.754151-15.120239 3.420411-29.682922 10.556519-43.211548 4.240967-8.039825 10.406738-14.092987 18.817139-18.378357m55.057495 36.479523c-1.011109-3.162689-1.933838-6.356842-3.049195-9.482331-3.926025-11.002624-11.366577-18.450164-22.998413-20.443054-12.51416-2.144012-24.33313-.374145-33.300903 9.856018-8.742065 9.972596-11.804687 22.38385-12.690186 34.999268-1.128906 16.086059-1.200683 32.285126-.895996 48.419769.217163 11.486084 2.496216 22.771912 7.75 33.239136 6.046875 12.047241 16.006958 17.863769 29.233887 18.172058 13.178101.307129 23.680298-4.660217 30.041748-16.664856 5.303101-10.007812 7.626343-20.835937 8.222168-32.094604 1.154053-21.803101 1.851318-43.587403-2.31311-66.001404z" fill="#908d89"/><path d="m1177.333984 579.307556c13.95752-18.872253 15.401856-38.66217 5.555176-59.334595-5.171509-10.857299-19.105835-14.55899-30.005005-13.616149-10.872925.940551-20.54187 4.940002-28.955566 12.079956-1.168701.991821-3.901367.90924-5.580567.344543-2.325805-.782165-4.781127-1.632629-4.429931-5.469971 1.439819-15.730407 2.478149-31.497589 3.659057-47.251648.70691-9.432006 1.404175-18.864776 2.12793-28.59613h71.137207v9.984192c-20.085449 0-40.144897 0-60.889404 0-1.772827 19.988586-3.498535 39.44574-5.339844 60.205109 2.322144-1.727204 3.673706-2.786347 5.078858-3.769196 14.495483-10.139252 38.716918-10.595276 53.498291-.869568 7.040039 4.632172 11.889038 11.137146 14.341918 19.165466 6.045411 19.786988 5.311524 39.1698-5.477783 57.214234-5.91455 9.891723-15.03247 16.242554-26.381347 19.125366-16.421875 4.171387-32.061768 2.810486-46.06128-7.32843-8.776977-6.356568-12.529297-15.861817-14.746948-26.417969 3.802734-.889648 7.161743-1.675415 11.291504-2.64154 3.135864 15.775451 12.379028 25.883667 28.755859 27.730896 12.056885 1.359924 23.075928-1.76355 32.421875-10.554566z" fill="#908d88"/><path d="m862.812134 554.013794c.085998-12.533386-.634094-24.73114.666137-36.709656 1.003357-9.244568 8.983277-13.408447 17.261597-15.959625 12.222046-3.766632 26.168091 1.819885 31.537293 12.655975.995666 2.009339 1.601928 4.417969 1.646423 6.656983.204834 10.311828.047852 20.630432.212402 30.943542.152588 9.560608-5.137512 15.555664-12.978454 19.52179-11.154602 5.642273-26.177857 2.671386-34.079651-6.852906-2.180603-2.628356-2.84314-6.516113-4.265747-10.256103z" fill="#fdfffd"/><path d="m995 528.110107c-8.620605 0-16.74115 0-24.823669 0-1.445557-16.420166 11.648742-28.769989 30.185669-28.888732 18.373474-.117707 31.571105 12.208862 30.409606 28.888732-11.732177 0-23.501892 0-35.771606 0z" fill="#fdfffd"/><path d="m793.579712 573.95166c-9.788635-.45874-19.257263-.349304-28.502319-1.733459-6.721375-1.006287-9.694153-5.968079-9.403138-12.106812.27118-5.721985 3.645874-9.928711 10.733826-10.254639 13.871094-.637878 27.792175-.187316 41.763245-.187316 1.471985 10.698547-.259888 21.420288-14.591614 24.282226z" fill="#fbfefb"/><path d="m1294.327393 475.834778c3.996337 22.031982 3.299072 43.816284 2.145019 65.619385-.595825 11.258667-2.919067 22.086792-8.222168 32.094604-6.36145 12.004639-16.863647 16.971985-30.041748 16.664856-13.226929-.308289-23.187012-6.124817-29.233887-18.172058-5.253784-10.467224-7.532837-21.753052-7.75-33.239136-.304687-16.134643-.23291-32.33371.895996-48.419769.885499-12.615418 3.948121-25.026672 12.690186-34.999268 8.967773-10.230163 20.786743-12.00003 33.300903-9.856018 11.631836 1.99289 19.072388 9.44043 22.998413 20.443054 1.115357 3.125489 2.038086 6.319642 3.217286 9.86435z" fill="#fffffe"/></svg>