<?xml version="1.0" standalone="no"?>
<!DOCTYPE svg PUBLIC "-//W3C//DTD SVG 20010904//EN"
 "http://www.w3.org/TR/2001/REC-SVG-20010904/DTD/svg10.dtd">
<svg version="1.0" xmlns="http://www.w3.org/2000/svg"
 width="400.000000pt" height="150.000000pt" viewBox="0 0 400.000000 150.000000"
 preserveAspectRatio="xMidYMid meet">
<metadata>
Created by potrace 1.10, written by Peter Selinger 2001-2011
</metadata>
<g transform="translate(0.000000,150.000000) scale(0.100000,-0.100000)"
fill="#000000" stroke="none">
<path d="M0 750 l0 -750 2000 0 2000 0 0 750 0 750 -2000 0 -2000 0 0 -750z
m3561 260 c18 -10 19 -23 19 -190 0 -113 4 -180 10 -180 6 0 10 -9 10 -20 0
-28 -55 -28 -70 -1 -14 27 -14 401 1 401 6 0 19 -5 30 -10z m120 0 c18 -10 19
-23 19 -182 0 -143 3 -174 16 -189 21 -23 10 -39 -26 -39 -19 0 -33 7 -40 19
-11 22 -14 383 -3 394 8 9 11 9 34 -3z m-3181 -23 c14 -7 25 -21 26 -32 1 -15
0 -16 -3 -3 -6 26 -71 42 -137 34 -46 -6 -60 -13 -81 -39 -25 -32 -37 -26 -12
6 33 43 150 63 207 34z m1284 -9 c21 -35 -4 -53 -78 -56 -66 -3 -66 -3 -66
-32 0 -29 2 -30 44 -30 25 0 48 -5 52 -12 5 -8 2 -9 -10 -5 -10 4 -38 7 -62 7
-38 0 -44 3 -44 21 0 47 17 59 84 59 63 0 76 7 76 41 0 5 -45 9 -99 9 -95 0
-100 -1 -104 -22 -4 -20 -4 -20 -6 4 0 14 5 29 12 32 6 2 52 4 101 3 72 -2 91
-5 100 -19z m267 -9 c16 -11 34 -30 40 -41 16 -31 23 -176 10 -223 -13 -50
-62 -105 -93 -105 -19 0 -18 3 12 18 73 36 103 171 64 285 -19 56 -51 77 -116
77 -97 0 -133 -50 -133 -185 0 -105 19 -149 75 -177 22 -11 28 -18 17 -18 -74
0 -120 115 -103 254 16 123 133 182 227 115z m421 6 c70 -51 49 -188 -32 -210
-22 -6 -21 -4 7 14 17 11 37 29 42 40 14 26 14 97 0 123 -16 30 -71 48 -149
48 l-70 0 0 -184 0 -185 28 -3 c22 -4 24 -6 10 -12 -45 -20 -48 -8 -48 192 0
104 3 192 8 196 4 4 45 6 92 4 66 -2 91 -8 112 -23z m-30 -45 c38 -46 9 -131
-45 -130 -18 1 -15 5 16 21 31 16 37 25 37 51 0 46 -25 68 -76 68 l-43 0 -4
-72 -3 -73 -2 84 -2 84 52 -5 c38 -4 57 -12 70 -28z m-2009 3 c-7 -2 -19 -2
-25 0 -7 3 -2 5 12 5 14 0 19 -2 13 -5z m-53 -18 c-7 -9 -15 -13 -17 -11 -7 7
7 26 19 26 6 0 6 -6 -2 -15z m130 5 c10 0 11 -3 3 -11 -8 -8 -19 -6 -39 6 -28
15 -28 16 -4 11 14 -3 32 -6 40 -6z m1500 -6 c18 -21 25 -163 10 -208 -11 -34
-50 -59 -67 -42 -4 3 3 6 15 6 33 0 46 37 46 125 0 86 -13 125 -43 125 -58 0
-77 -124 -36 -235 8 -19 7 -19 -11 -2 -16 15 -19 32 -19 111 0 78 3 97 19 115
22 25 68 28 86 5z m-1733 -41 c-3 -10 -5 -4 -5 12 0 17 2 24 5 18 2 -7 2 -21
0 -30z m1291 -20 l-3 -58 57 3 c47 3 60 0 77 -17 43 -43 11 -123 -48 -120
l-26 2 25 4 c54 10 76 57 46 98 -12 17 -24 19 -74 17 -37 -2 -63 1 -67 8 -8
12 3 120 12 120 2 0 3 -26 1 -57z m-1148 -5 c19 -9 45 -19 57 -22 29 -9 63
-65 63 -105 0 -59 -50 -122 -97 -121 -11 1 -6 6 13 14 45 20 74 62 74 106 0
50 -22 74 -100 113 -35 18 -66 39 -68 47 -3 13 -1 13 10 0 7 -9 29 -23 48 -32z
m298 35 c-15 -2 -42 -2 -60 0 -18 2 -6 4 27 4 33 0 48 -2 33 -4z m322 -4 l25
0 -24 -10 c-15 -6 -28 -6 -35 0 -6 5 -25 11 -41 14 -17 2 -12 3 10 1 22 -2 51
-4 65 -5z m58 -153 c2 -146 1 -160 -19 -192 -28 -46 -46 -54 -127 -54 -54 0
-75 4 -93 19 -22 17 -22 21 -10 45 15 27 35 34 46 16 3 -5 0 -7 -9 -4 -19 7
-38 -27 -26 -46 6 -10 33 -16 83 -18 71 -4 76 -3 108 26 l34 30 3 163 c3 126
0 164 -10 171 -10 8 -10 9 2 5 12 -3 15 -31 18 -161z m262 136 c27 -28 49
-100 35 -122 -3 -5 -41 -10 -85 -10 -43 0 -81 -5 -83 -10 -3 -6 -4 -5 -3 2 2
9 27 14 79 16 l77 3 0 34 c0 68 -30 101 -100 108 -32 3 -31 4 8 5 36 2 49 -3
72 -26z m1351 9 c20 -16 24 -30 29 -122 4 -65 11 -104 18 -107 7 -2 12 -13 12
-24 0 -18 -5 -19 -37 -14 -51 8 -52 8 -100 0 -58 -9 -90 1 -108 36 -16 32 -20
66 -7 74 5 3 6 -8 4 -24 -9 -61 72 -101 138 -67 20 10 30 10 52 -1 36 -18 53
-7 33 21 -10 15 -15 46 -15 103 0 102 -14 125 -86 135 l-49 6 46 2 c32 1 54
-5 70 -18z m456 12 c-4 -3 -10 -3 -14 0 -3 4 0 7 7 7 7 0 10 -3 7 -7z m201 0
c-10 -2 -28 -2 -40 0 -13 2 -5 4 17 4 22 1 32 -1 23 -4z m-2769 -22 c-20 -16
-22 -21 -10 -35 10 -12 17 -14 25 -6 17 17 103 13 110 -6 11 -28 7 -32 -55
-43 -34 -6 -70 -18 -80 -27 -11 -10 -19 -12 -19 -6 0 17 49 39 103 47 29 5 46
12 44 19 -4 12 -83 14 -109 2 -13 -6 -21 -1 -30 19 -11 24 -10 29 7 41 28 21
41 17 14 -5z m188 -8 c14 -21 19 -53 22 -140 l3 -113 -35 0 c-20 0 -38 4 -41
9 -3 4 -23 4 -44 -2 -57 -15 -109 -2 -127 33 -17 33 -20 66 -6 74 5 3 9 -10 8
-30 -2 -53 32 -78 93 -69 55 8 66 8 106 0 l31 -7 -4 109 c-4 86 -9 114 -24
136 -11 15 -15 27 -10 27 6 0 19 -12 28 -27z m101 -2 c-32 -28 -33 -32 -33
-105 0 -68 3 -78 26 -102 28 -27 80 -35 128 -19 23 8 24 7 18 -26 -11 -56 -66
-86 -107 -59 -11 7 -4 10 26 10 41 0 55 9 67 43 6 16 2 18 -36 12 -88 -13
-137 36 -137 140 0 60 13 94 48 123 32 25 31 11 0 -17z m320 13 c-15 -8 -34
-27 -42 -42 -9 -15 -15 -20 -16 -13 0 20 50 71 69 71 10 -1 5 -7 -11 -16z
m1360 0 c-45 -24 -33 -34 32 -27 64 6 90 -4 90 -38 0 -13 -10 -20 -37 -24 -21
-3 -49 -8 -63 -11 -19 -4 -22 -3 -13 6 6 7 32 15 57 17 29 4 46 10 46 19 0 25
-67 30 -122 9 -25 -10 -36 34 -12 52 10 7 25 13 33 13 10 -1 5 -7 -11 -16z
m252 1 c13 -16 42 -106 36 -112 -2 -2 -13 22 -23 54 -15 44 -25 59 -41 61 -27
4 -27 -4 -4 -60 23 -53 37 -107 24 -93 -9 10 -52 138 -52 155 0 15 46 12 60
-5z m200 12 c0 -10 -70 -200 -76 -205 -4 -4 -5 0 -2 8 63 185 66 206 28 182
-19 -11 -28 -3 -13 11 6 7 63 10 63 4z m105 -10 c-9 -5 -27 -6 -41 -3 l-24 6
0 -125 c0 -103 3 -125 15 -125 11 0 15 19 18 88 l3 87 2 -92 c2 -95 -3 -109
-38 -98 -19 6 -20 15 -20 140 l0 134 51 -1 c36 -1 46 -4 34 -11z m78 1 c2 -7
0 -21 -5 -31 -7 -14 -16 -17 -35 -12 -17 4 -32 0 -46 -12 -20 -18 -20 -18 -8
5 11 20 19 23 48 20 32 -4 34 -2 30 19 -4 24 8 32 16 11z m68 -14 c-37 -31
-55 -90 -46 -148 8 -47 18 -62 60 -88 17 -10 24 -18 17 -18 -47 0 -92 66 -92
134 0 51 29 118 57 135 33 19 35 11 4 -15z m144 18 c6 -4 21 -20 33 -36 32
-41 31 -141 0 -182 -28 -37 -49 -53 -67 -54 -8 0 1 10 20 23 42 28 59 60 59
114 0 56 -15 93 -48 120 -24 21 -22 33 3 15z m-3101 -71 c-5 -6 -33 31 -33 44
-1 6 8 -1 19 -15 10 -14 17 -27 14 -29z m994 27 c7 -7 12 -22 12 -35 0 -21 -4
-23 -50 -23 -54 0 -61 10 -34 48 17 24 53 29 72 10z m492 -94 c0 -48 -4 -59
-32 -89 -18 -19 -46 -37 -63 -41 -25 -5 -22 -2 15 17 25 13 51 35 58 49 16 30
9 124 -10 149 -7 9 -3 6 10 -7 17 -18 22 -35 22 -78z m1129 32 c-11 -37 -22
-66 -25 -63 -2 2 5 34 17 71 11 38 22 66 24 64 3 -2 -5 -35 -16 -72z m476 44
c28 -55 11 -148 -30 -164 -49 -18 -105 16 -105 63 0 24 1 24 18 -9 14 -29 23
-36 54 -38 46 -4 68 24 68 85 0 90 -90 116 -126 36 -10 -23 -13 -24 -13 -8 -2
40 26 65 74 65 39 0 46 -4 60 -30z m-2387 8 c7 -7 12 -39 12 -73 0 -68 -10
-85 -51 -85 -36 0 -59 33 -59 85 0 52 23 85 59 85 15 0 32 -5 39 -12z m-638
-38 c19 -11 31 -19 27 -20 -12 0 -77 28 -77 34 0 10 14 6 50 -14z m767 -57
c-2 -16 -4 -5 -4 22 0 28 2 40 4 28 2 -13 2 -35 0 -50z m-703 21 c5 -14 4 -15
-9 -4 -17 14 -19 20 -6 20 5 0 12 -7 15 -16z m1946 12 c0 -2 -16 -6 -35 -8
-19 -2 -35 0 -35 4 0 4 16 8 35 8 19 0 35 -2 35 -4z m160 -11 c-7 -9 -15 -13
-19 -10 -3 3 1 10 9 15 21 14 24 12 10 -5z m-1822 -37 c2 -29 -1 -39 -18 -48
-28 -15 -60 -9 -74 13 -13 21 0 46 35 64 38 20 54 12 57 -29z m1962 3 c0 -42
-11 -56 -52 -66 -45 -11 -68 2 -68 39 0 28 6 36 33 50 17 8 44 16 60 16 25 0
27 -3 27 -39z m204 -22 c4 -4 5 -12 1 -19 -10 -17 -22 -1 -29 40 -6 33 -5 34
6 10 7 -14 17 -28 22 -31z m-2450 -10 c-20 -23 -77 -25 -114 -4 -28 15 -50 4
-50 -25 0 -12 14 -24 43 -34 39 -15 40 -16 8 -11 -59 9 -77 40 -47 80 13 19
15 19 47 1 46 -24 101 -19 114 12 5 12 11 18 13 12 2 -6 -4 -20 -14 -31z
m1172 -7 c-2 -1 -16 2 -31 8 -22 8 -30 8 -37 -2 -18 -29 -5 -47 47 -66 18 -6
23 -11 12 -11 -10 -1 -32 6 -49 15 -27 14 -29 19 -24 47 3 17 11 34 17 38 10
6 72 -21 65 -29z m-313 -2 c20 0 39 5 42 10 12 19 35 10 41 -17 6 -20 2 -31
-16 -45 -12 -10 -27 -18 -34 -18 -6 1 1 8 17 16 28 15 33 29 17 54 -7 12 -12
12 -22 2 -15 -15 -90 -16 -106 0 -19 19 -14 33 6 15 10 -10 35 -17 55 -17z
m1538 -7 c7 -21 19 -43 26 -48 13 -9 12 -16 -3 -48 -19 -39 -42 -52 -74 -42
-16 5 -20 2 -20 -14 0 -17 6 -21 34 -21 50 0 81 31 106 105 22 66 36 88 24 38
-13 -54 -47 -124 -68 -138 -27 -19 -90 -19 -106 0 -18 22 6 48 38 42 26 -5 62
22 62 46 0 7 -9 30 -20 52 -19 37 -26 65 -16 65 3 0 10 -17 17 -37z m-1606
-49 c26 -8 32 -13 18 -13 -35 -1 -73 20 -89 50 -21 42 -17 46 9 8 15 -22 36
-38 62 -45z"/>
<path d="M3530 822 c0 -194 3 -212 42 -212 19 0 24 15 8 25 -6 4 -10 76 -10
185 0 153 -2 179 -16 184 -9 3 -18 6 -20 6 -2 0 -4 -85 -4 -188z"/>
<path d="M3650 822 c0 -194 3 -212 42 -212 19 0 24 15 8 25 -6 4 -10 76 -10
185 0 153 -2 179 -16 184 -9 3 -18 6 -20 6 -2 0 -4 -85 -4 -188z"/>
<path d="M1240 805 c-11 -13 -7 -15 28 -15 33 0 40 3 36 15 -4 8 -16 15 -29
15 -12 0 -28 -7 -35 -15z"/>
<path d="M953 812 c-7 -4 -15 -25 -18 -47 -7 -52 12 -90 45 -90 24 0 25 2 25
70 0 62 -2 70 -20 73 -11 1 -25 -1 -32 -6z"/>
<path d="M658 719 c-20 -11 -24 -44 -7 -54 5 -4 21 -4 35 -1 19 5 24 13 24 36
0 32 -19 39 -52 19z"/>
<path d="M2640 732 c-43 -4 -60 -18 -60 -48 0 -21 5 -24 39 -24 44 0 64 18 59
52 -3 20 -8 23 -38 20z"/>
</g>
</svg>
